<svg width="124" height="26" viewBox="0 0 124 26" fill="none" xmlns="http://www.w3.org/2000/svg">
<path d="M101.42 18.5242C101.36 18.5419 101.334 18.6123 101.368 18.6651C102.351 20.2037 104.066 21.1836 106.188 21.1836C107.34 21.1836 108.412 20.8548 109.199 20.2628C109.989 19.6692 110.493 18.8098 110.493 17.764C110.493 16.6778 110.101 15.9235 109.398 15.3727C108.705 14.8302 107.718 14.4919 106.54 14.2053C105.882 14.0445 105.403 13.9213 105.089 13.7708C104.933 13.6964 104.829 13.6205 104.764 13.5402C104.702 13.4635 104.67 13.3761 104.67 13.2639C104.67 13.0666 104.783 12.8955 105.023 12.7662C105.266 12.6353 105.625 12.5575 106.068 12.5575C106.798 12.5575 107.403 12.677 107.804 13.2033C107.834 13.2434 107.863 13.298 107.886 13.3461C107.914 13.402 107.972 13.4399 108.032 13.4222L110.461 12.6937C110.517 12.6769 110.551 12.618 110.532 12.5618C110.482 12.4134 110.406 12.2574 110.349 12.1628C109.625 10.9731 108.199 9.89924 106.002 9.89924C104.829 9.89924 103.767 10.225 102.995 10.8137C102.221 11.4045 101.741 12.2586 101.741 13.2969C101.741 14.4239 102.168 15.1924 102.899 15.7395C103.62 16.2786 104.629 16.5972 105.784 16.8562C106.431 17 106.874 17.1178 107.155 17.2634C107.294 17.335 107.383 17.4084 107.439 17.4859C107.492 17.5611 107.52 17.6492 107.52 17.764C107.52 17.9989 107.393 18.1888 107.155 18.327C106.912 18.4675 106.563 18.5474 106.156 18.5474C105.445 18.5474 104.709 18.3702 104.133 17.7778C104.104 17.7479 104.061 17.7357 104.02 17.7475L101.42 18.5242Z" fill="#9B9AD6"/>
<path d="M115.356 6.01476C114.307 6.3295 113.589 7.29499 113.589 8.39012V20.8402C113.589 20.901 113.638 20.9503 113.699 20.9503H116.584C116.645 20.9503 116.694 20.901 116.694 20.8402V14.901C116.694 14.2074 116.953 13.6826 117.35 13.3298C117.749 12.9749 118.296 12.7863 118.882 12.7863C119.462 12.7863 119.962 12.974 120.318 13.3247C120.672 13.6748 120.895 14.2002 120.895 14.901V20.8402C120.895 20.901 120.944 20.9503 121.005 20.9503H123.89C123.951 20.9503 124 20.901 124 20.8402V14.1748C124 12.871 123.557 11.7961 122.793 11.0471C122.03 10.2985 120.957 9.88594 119.717 9.88594C118.359 9.88594 117.32 10.4101 116.694 11.0109V5.74673C116.694 5.68027 116.63 5.63261 116.566 5.65171L115.356 6.01476Z" fill="#9B9AD6"/>
<path fill-rule="evenodd" clip-rule="evenodd" d="M73.7799 20.9175C73.7192 20.9175 73.67 20.8682 73.67 20.8074V8.37793C73.67 7.28274 74.3884 6.31723 75.4374 6.00252L76.5922 5.65606C76.6559 5.63697 76.7199 5.68463 76.7199 5.75108V11.1134C77.4439 10.3554 78.509 9.85313 80.0511 9.85313C83.1263 9.85313 85.3006 12.2033 85.3006 15.4843C85.3006 18.7422 83.1274 21.1375 80.0511 21.1375C79.3056 21.1375 78.6356 21.015 78.0607 20.7972C77.5259 20.6384 77.1839 20.4029 76.9872 20.1987C76.9031 20.1322 76.8232 20.0628 76.7476 19.9907L76.7074 20.8128C76.7045 20.8714 76.6562 20.9175 76.5976 20.9175H73.7799ZM76.7529 15.4733C76.7529 13.8634 77.9027 12.6654 79.4798 12.6654C81.0782 12.6654 82.1957 13.8407 82.1957 15.4733C82.1957 17.0765 81.0639 18.3252 79.4798 18.3252C77.895 18.3252 76.7529 17.0757 76.7529 15.4733Z" fill="#9B9AD6"/>
<path d="M92.4267 21.1841C93.8622 21.1841 94.9437 20.6349 95.5772 19.9677L95.6166 20.8041C95.6194 20.8628 95.6677 20.909 95.7264 20.909H98.4672C98.5279 20.909 98.5771 20.8597 98.5771 20.799V9.98961C98.5771 9.92314 98.513 9.87548 98.4493 9.8946L95.6069 10.7486C95.5335 10.7707 95.4832 10.8382 95.4832 10.9149V16.18C95.4832 16.8735 95.2243 17.395 94.8241 17.745C94.4214 18.0971 93.8656 18.2837 93.2617 18.2837C92.676 18.2837 92.1696 18.0982 91.8104 17.7499C91.4522 17.4025 91.227 16.8802 91.227 16.18V9.9739C91.227 9.90741 91.1629 9.85975 91.0992 9.8789L88.2567 10.7341C88.1833 10.7562 88.1331 10.8238 88.1331 10.9004V16.9062C88.1331 18.2098 88.5734 19.2822 89.3374 20.0286C90.1009 20.7746 91.1763 21.1841 92.4267 21.1841Z" fill="#9B9AD6"/>
<path fill-rule="evenodd" clip-rule="evenodd" d="M36.9326 20.8015C36.911 20.8585 36.8565 20.8962 36.7956 20.8962H33.59C33.5121 20.8962 33.4589 20.8173 33.4881 20.7449L39.5336 5.74165C39.5504 5.70003 39.5907 5.67278 39.6355 5.67278H43.0829C43.1277 5.67278 43.168 5.7 43.1847 5.74158L49.2413 20.7449C49.2705 20.8172 49.2174 20.8962 49.1394 20.8962H45.9337C45.8727 20.8962 45.8181 20.8583 45.7966 20.8011L44.7336 17.9694H38.0064L36.9326 20.8015ZM43.9737 15.463H38.7447L38.7444 15.4638H43.974L43.9737 15.463ZM38.9524 15.3222H43.7666L41.3696 9.29559L38.9524 15.3222Z" fill="#9B9AD6"/>
<path d="M55.4484 20.7861C55.4484 20.8469 55.3992 20.8962 55.3385 20.8962H52.4534C52.3927 20.8962 52.3435 20.8469 52.3435 20.7861V10.8542C52.3435 10.7776 52.3938 10.71 52.4672 10.688L55.1845 9.87295C55.247 9.85421 55.3102 9.89984 55.3122 9.96504L55.3441 11.0472C55.9719 10.3875 57.0554 9.83181 58.4499 9.83181C60.0026 9.83181 61.3175 10.4478 62.0017 11.5796C62.7956 10.5208 64.1176 9.83181 65.6462 9.83181C66.8855 9.83181 67.9581 10.2356 68.7217 10.9803C69.4859 11.7255 69.9288 12.8008 69.9288 14.1207V20.7861C69.9288 20.8469 69.8797 20.8962 69.819 20.8962H66.9339C66.8732 20.8962 66.824 20.8469 66.824 20.7861V14.8469C66.824 14.1446 66.6085 13.619 66.2631 13.2693C65.9175 12.9195 65.4285 12.7321 64.8552 12.7321C64.2791 12.7321 63.7336 12.9132 63.3345 13.2565C62.9381 13.5975 62.6776 14.1055 62.6776 14.7808V20.7861C62.6776 20.8469 62.6284 20.8962 62.5677 20.8962H59.6827C59.622 20.8962 59.5728 20.8469 59.5728 20.7861V14.8469C59.5728 14.1451 59.3548 13.6193 59.0091 13.2693C58.6632 12.9191 58.1766 12.7321 57.6149 12.7321C57.0347 12.7321 56.4929 12.9206 56.0979 13.2752C55.705 13.6279 55.4484 14.1528 55.4484 14.8469V20.7861Z" fill="#9B9AD6"/>
<path d="M13.6201 2.56602C14.9532 0.712017 17.4362 0.102171 19.4765 1.12766L24.1354 3.46925C24.1586 3.48091 24.1658 3.51056 24.1507 3.53163L9.39638 24.04C9.37283 24.0728 9.40418 24.1167 9.4428 24.1051L13.7793 22.8023C14.225 22.6684 14.614 22.391 14.8857 22.0132L24.1036 9.19729C24.1275 9.164 24.1801 9.18094 24.1801 9.22194L24.1801 20.8965C24.1801 20.9278 24.1471 20.9483 24.119 20.9342L18.9644 18.3592C18.9459 18.3499 18.9234 18.3555 18.9113 18.3723L15.5851 22.9934C15.3131 23.3713 14.9238 23.6487 14.4777 23.7823L9.68099 25.2198C8.75044 25.4987 7.74842 25.4105 6.88082 24.9736L0.0442343 21.5301C0.02106 21.5185 0.0137992 21.4889 0.0289473 21.4678L13.6201 2.56602Z" fill="#9B9AD6"/>
</svg>
